<?xml version="1.0" encoding="UTF-8"?>
<svg viewBox="0 0 512 512" xmlns="http://www.w3.org/2000/svg">
  <!-- Background -->
  <rect x="0" y="0" width="512" height="512" rx="100" fill="#2A55A3"/>
  
  <!-- Newspaper folded effect -->
  <path d="M90 120 L90 392 C90 403.046 98.9543 412 110 412 L402 412 C413.046 412 422 403.046 422 392 L422 120 L90 120 Z" fill="#F5F5F5"/>
  <path d="M402 120 L402 392 C402 403.046 393.046 412 382 412 L402 412 C413.046 412 422 403.046 422 392 L422 120 L402 120 Z" fill="#E0E0E0"/>

  <!-- Fold effect -->
  <path d="M90 120 L402 120 L402 140 L90 140 Z" fill="#E0E0E0"/>
  <path d="M90 170 L402 170 L402 190 L90 190 Z" fill="#E0E0E0"/>
  
  <!-- Headline text block -->
  <rect x="130" y="210" width="252" height="30" rx="4" fill="#2A55A3"/>
  
  <!-- Text lines -->
  <rect x="130" y="260" width="252" height="12" rx="4" fill="#BBBBBB"/>
  <rect x="130" y="280" width="252" height="12" rx="4" fill="#BBBBBB"/>
  <rect x="130" y="300" width="150" height="12" rx="4" fill="#BBBBBB"/>
  
  <!-- College emblem -->
  <circle cx="256" cy="355" r="35" fill="#FFC107"/>
  <path d="M256 335 L271 350 L256 365 L241 350 Z" fill="#FFFFFF"/>
  <path d="M256 335 L271 350 L256 365 Z" fill="#FFECB3"/>
  
  <!-- Graduation cap -->
  <path d="M256 90 L326 120 L256 150 L186 120 Z" fill="#FFC107"/>
  <path d="M256 150 L256 170 L296 150 L296 125 L256 105 Z" fill="#FFECB3"/>
  <circle cx="256" cy="90" r="15" fill="#2A55A3"/>
  <circle cx="256" cy="90" r="8" fill="#FFC107"/>
</svg>