<svg viewBox="0 0 512 512" xmlns="http://www.w3.org/2000/svg">
  <!-- Modern gradient background circle -->
  <defs>
    <linearGradient id="bgGradient" x1="0%" y1="0%" x2="100%" y2="100%">
      <stop offset="0%" style="stop-color:#4F46E5;stop-opacity:0.1"/>
      <stop offset="100%" style="stop-color:#F97316;stop-opacity:0.1"/>
    </linearGradient>
    <linearGradient id="bulbGradient" x1="0%" y1="0%" x2="100%" y2="100%">
      <stop offset="0%" style="stop-color:#F59E0B"/>
      <stop offset="100%" style="stop-color:#FBBF24"/>
    </linearGradient>
    <linearGradient id="newsGradient" x1="0%" y1="0%" x2="100%" y2="100%">
      <stop offset="0%" style="stop-color:#4F46E5"/>
      <stop offset="100%" style="stop-color:#6366F1"/>
    </linearGradient>
  </defs>

  <!-- Background circle with subtle gradient -->
  <circle cx="256" cy="256" r="240" fill="url(#bgGradient)" stroke="#4F46E5" stroke-width="2" opacity="0.3"/>

  <!-- Light bulb (idea/knowledge) with modern gradient -->
  <path d="M256 140a80 80 0 0 1 80 80c0 28-16 52-32 68v16h-96v-16c-16-16-32-40-32-68a80 80 0 0 1 80-80z" fill="url(#bulbGradient)"/>
  <rect x="224" y="308" width="64" height="24" rx="8" fill="#374151"/>
  <rect x="236" y="336" width="40" height="12" rx="6" fill="#6B7280"/>

  <!-- News/content lines with modern primary color -->
  <rect x="140" y="220" width="90" height="12" rx="6" fill="url(#newsGradient)"/>
  <rect x="140" y="240" width="120" height="10" rx="5" fill="#A8A29E"/>
  <rect x="140" y="260" width="100" height="10" rx="5" fill="#A8A29E"/>
  <rect x="140" y="280" width="60" height="10" rx="5" fill="#A8A29E"/>

  <!-- Notification dot with modern accent color -->
  <circle cx="360" cy="160" r="14" fill="#F97316" stroke="#ffffff" stroke-width="4"/>
  <circle cx="360" cy="160" r="6" fill="#ffffff"/>
</svg>
